<svg width="197" height="48" viewBox="0 0 197 48" fill="none" xmlns="http://www.w3.org/2000/svg">
<path d="M27.8237 39.4057V26.3268C35.8763 7.53726 46.9816 8.51097 52.35 10.5241V37.3662C45.9079 34.682 35.1 34.9425 30.85 35.1662V43.2188C17.9658 38.3872 6.04738 41.3925 1.34998 43.4057V11.1951C16.9184 9.04775 24.8368 17.0109 26.85 21.261" stroke="white" stroke-width="2.7" stroke-linecap="round"/>
<path d="M27.4652 2.8374e-05L21.6576 5.80762L27.4652 11.6152L33.2728 5.80762L27.4652 2.8374e-05Z" fill="#00DDFF"/>
<path d="M75.7195 40.1069H66.35V13.519H75.797C78.4555 13.519 80.7441 14.0513 82.6628 15.1159C84.5815 16.1717 86.057 17.6907 87.0895 19.6727C88.1306 21.6547 88.651 24.026 88.651 26.7869C88.651 29.5566 88.1306 31.9367 87.0895 33.9273C86.057 35.9179 84.5728 37.4455 82.637 38.51C80.7097 39.5746 78.4039 40.1069 75.7195 40.1069ZM71.9381 35.2903H75.4872C77.1392 35.2903 78.5287 34.9961 79.6558 34.4077C80.7915 33.8105 81.6432 32.8887 82.2111 31.6424C82.7875 30.3873 83.0759 28.7689 83.0759 26.7869C83.0759 24.8223 82.7875 23.2168 82.2111 21.9705C81.6432 20.7243 80.7958 19.8068 79.6687 19.2182C78.5416 18.6297 77.1521 18.3355 75.5001 18.3355H71.9381V35.2903ZM94.5045 40.1069V20.166H100.002V40.1069H94.5045ZM97.2663 17.5954C96.4488 17.5954 95.7478 17.3229 95.1627 16.7776C94.5863 16.2236 94.2979 15.5615 94.2979 14.7912C94.2979 14.0297 94.5863 13.3762 95.1627 12.831C95.7478 12.2771 96.4488 12 97.2663 12C98.0837 12 98.7806 12.2771 99.3569 12.831C99.9421 13.3762 100.235 14.0297 100.235 14.7912C100.235 15.5615 99.9421 16.2236 99.3569 16.7776C98.7806 17.3229 98.0837 17.5954 97.2663 17.5954ZM115.154 48C113.373 48 111.846 47.7534 110.573 47.2601C109.308 46.7755 108.301 46.1132 107.553 45.2738C106.804 44.4343 106.318 43.4909 106.094 42.4437L111.179 41.7557C111.334 42.1538 111.579 42.526 111.915 42.872C112.251 43.2182 112.694 43.4953 113.244 43.7029C113.803 43.9194 114.483 44.0274 115.283 44.0274C116.479 44.0274 117.464 43.7333 118.239 43.1447C119.022 42.5649 119.413 41.5912 119.413 40.2237V36.5756H119.181C118.94 37.1296 118.578 37.6531 118.097 38.1465C117.615 38.6398 116.995 39.0423 116.238 39.3538C115.481 39.6654 114.578 39.8212 113.528 39.8212C112.04 39.8212 110.685 39.475 109.463 38.7826C108.25 38.0816 107.282 37.0128 106.559 35.576C105.845 34.1305 105.488 32.3045 105.488 30.0974C105.488 27.8385 105.854 25.9517 106.585 24.4371C107.316 22.9225 108.288 21.7888 109.502 21.0357C110.723 20.2828 112.061 19.9063 113.515 19.9063C114.625 19.9063 115.554 20.0967 116.303 20.4775C117.051 20.8497 117.654 21.3171 118.11 21.8797C118.574 22.4335 118.931 22.9788 119.181 23.5155H119.387V20.166H124.846V40.3016C124.846 41.9979 124.433 43.4172 123.608 44.5597C122.781 45.7021 121.637 46.5591 120.174 47.1303C118.721 47.7101 117.047 48 115.154 48ZM115.27 35.6669C116.157 35.6669 116.905 35.4461 117.516 35.0048C118.135 34.5548 118.609 33.9143 118.936 33.0833C119.271 32.2439 119.439 31.2399 119.439 30.0715C119.439 28.9031 119.276 27.8904 118.948 27.0337C118.622 26.1681 118.148 25.4973 117.529 25.0213C116.909 24.5453 116.157 24.3073 115.27 24.3073C114.367 24.3073 113.606 24.5539 112.986 25.0473C112.367 25.532 111.898 26.2071 111.579 27.0726C111.261 27.9381 111.102 28.9376 111.102 30.0715C111.102 31.2225 111.261 32.2178 111.579 33.0574C111.906 33.8883 112.375 34.533 112.986 34.9918C113.606 35.4419 114.367 35.6669 115.27 35.6669ZM131.039 40.1069V20.166H136.536V40.1069H131.039ZM133.8 17.5954C132.983 17.5954 132.282 17.3229 131.697 16.7776C131.12 16.2236 130.832 15.5615 130.832 14.7912C130.832 14.0297 131.12 13.3762 131.697 12.831C132.282 12.2771 132.983 12 133.8 12C134.618 12 135.315 12.2771 135.891 12.831C136.476 13.3762 136.769 14.0297 136.769 14.7912C136.769 15.5615 136.476 16.2236 135.891 16.7776C135.315 17.3229 134.618 17.5954 133.8 17.5954ZM142.861 40.1069V13.519H148.449V35.4722H159.78V40.1069H142.861ZM165.195 40.1069V20.166H170.693V40.1069H165.195ZM167.957 17.5954C167.139 17.5954 166.438 17.3229 165.853 16.7776C165.277 16.2236 164.988 15.5615 164.988 14.7912C164.988 14.0297 165.277 13.3762 165.853 12.831C166.438 12.2771 167.139 12 167.957 12C168.774 12 169.471 12.2771 170.047 12.831C170.632 13.3762 170.925 14.0297 170.925 14.7912C170.925 15.5615 170.632 16.2236 170.047 16.7776C169.471 17.3229 168.774 17.5954 167.957 17.5954ZM177.017 40.1069V13.519H182.515V23.5155H182.683C182.924 22.9788 183.272 22.4335 183.728 21.8797C184.193 21.3171 184.795 20.8497 185.535 20.4775C186.283 20.0967 187.213 19.9063 188.322 19.9063C189.768 19.9063 191.102 20.2872 192.323 21.0487C193.545 21.8018 194.522 22.9399 195.253 24.4631C195.984 25.9777 196.35 27.8774 196.35 30.1623C196.35 32.3867 195.993 34.2647 195.279 35.7967C194.573 37.3199 193.61 38.4753 192.388 39.2629C191.175 40.042 189.815 40.4313 188.31 40.4313C187.243 40.4313 186.335 40.254 185.587 39.8991C184.847 39.5443 184.24 39.0986 183.767 38.5619C183.294 38.0167 182.932 37.467 182.683 36.9132H182.438V40.1069H177.017ZM182.399 30.1364C182.399 31.3221 182.562 32.3564 182.889 33.2392C183.216 34.1219 183.689 34.81 184.309 35.3033C184.928 35.7881 185.681 36.0303 186.567 36.0303C187.462 36.0303 188.219 35.7837 188.839 35.2903C189.458 34.7884 189.927 34.096 190.246 33.2133C190.572 32.3218 190.736 31.2962 190.736 30.1364C190.736 28.9853 190.577 27.9727 190.258 27.0986C189.94 26.2244 189.471 25.5406 188.852 25.0473C188.232 24.5539 187.471 24.3073 186.567 24.3073C185.673 24.3073 184.915 24.5453 184.296 25.0213C183.685 25.4973 183.216 26.1725 182.889 27.0466C182.562 27.9207 182.399 28.9506 182.399 30.1364Z" fill="white"/>
</svg>
