<svg width="74" height="76" viewBox="0 0 74 76" fill="none" xmlns="http://www.w3.org/2000/svg">
<path d="M37.9737 39.4058V26.3268C46.0263 7.53733 57.1316 8.51104 62.5 10.5241V37.3663C56.0579 34.6821 45.25 34.9426 41 35.1663V43.2189C28.1158 38.3873 16.1974 41.3926 11.5 43.4057V11.1952C27.0684 9.04782 34.9868 17.011 37 21.261" stroke="white" stroke-width="2.5" stroke-linecap="round"/>
<rect x="31.8076" y="5.80762" width="8.21317" height="8.21317" transform="rotate(-45 31.8076 5.80762)" fill="#00DDFF"/>
<path d="M6.61186 70.4058H1.45561V55.8603H6.65447C8.11754 55.8603 9.37701 56.1515 10.4329 56.7339C11.4888 57.3115 12.3008 58.1425 12.869 59.2268C13.4419 60.3111 13.7283 61.6084 13.7283 63.1188C13.7283 64.634 13.4419 65.9361 12.869 67.0251C12.3008 68.1141 11.484 68.9498 10.4187 69.5322C9.35807 70.1146 8.08913 70.4058 6.61186 70.4058ZM4.53089 67.7708H6.48402C7.39311 67.7708 8.15779 67.6098 8.77805 67.2879C9.40305 66.9612 9.8718 66.4569 10.1843 65.7751C10.5015 65.0885 10.6602 64.2031 10.6602 63.1188C10.6602 62.044 10.5015 61.1657 10.1843 60.4839C9.8718 59.8021 9.40542 59.3002 8.78516 58.9782C8.16489 58.6562 7.40021 58.4953 6.49112 58.4953H4.53089V67.7708ZM16.9496 70.4058V59.4967H19.9751V70.4058H16.9496ZM18.4695 58.0904C18.0196 58.0904 17.6338 57.9413 17.3118 57.643C16.9946 57.3399 16.8359 56.9777 16.8359 56.5563C16.8359 56.1397 16.9946 55.7822 17.3118 55.4839C17.6338 55.1809 18.0196 55.0293 18.4695 55.0293C18.9193 55.0293 19.3028 55.1809 19.62 55.4839C19.942 55.7822 20.103 56.1397 20.103 56.5563C20.103 56.9777 19.942 57.3399 19.62 57.643C19.3028 57.9413 18.9193 58.0904 18.4695 58.0904ZM28.3136 74.7239C27.3335 74.7239 26.493 74.589 25.7923 74.3191C25.0962 74.054 24.5423 73.6917 24.1303 73.2325C23.7184 72.7732 23.4509 72.2571 23.3278 71.6842L26.1261 71.3078C26.2113 71.5256 26.3462 71.7292 26.5309 71.9185C26.7156 72.1079 26.9594 72.2595 27.2624 72.3731C27.5702 72.4915 27.9442 72.5506 28.3846 72.5506C29.0427 72.5506 29.5849 72.3897 30.011 72.0677C30.4419 71.7505 30.6573 71.2178 30.6573 70.4697V68.4739H30.5295C30.3969 68.777 30.198 69.0634 29.9329 69.3333C29.6677 69.6032 29.3268 69.8234 28.9102 69.9938C28.4935 70.1643 27.9963 70.2495 27.4187 70.2495C26.5996 70.2495 25.8538 70.0601 25.1815 69.6813C24.5138 69.2978 23.9812 68.7131 23.5835 67.9271C23.1905 67.1363 22.994 66.1373 22.994 64.9299C22.994 63.6941 23.1952 62.6619 23.5977 61.8333C24.0001 61.0047 24.5352 60.3845 25.2028 59.9725C25.8751 59.5606 26.6114 59.3546 27.4116 59.3546C28.0224 59.3546 28.5337 59.4588 28.9457 59.6671C29.3576 59.8707 29.689 60.1264 29.94 60.4342C30.1957 60.7372 30.3922 61.0355 30.5295 61.3291H30.6431V59.4967H33.6474V70.5123C33.6474 71.4403 33.4201 72.2168 32.9656 72.8418C32.511 73.4668 31.8813 73.9356 31.0763 74.2481C30.2762 74.5653 29.3552 74.7239 28.3136 74.7239ZM28.3775 67.9768C28.8652 67.9768 29.2771 67.856 29.6133 67.6146C29.9542 67.3684 30.2146 67.018 30.3945 66.5634C30.5792 66.1042 30.6715 65.5549 30.6715 64.9157C30.6715 64.2765 30.5816 63.7225 30.4016 63.2538C30.2217 62.7803 29.9613 62.4133 29.6204 62.1529C29.2795 61.8925 28.8652 61.7623 28.3775 61.7623C27.8803 61.7623 27.4613 61.8972 27.1204 62.1671C26.7795 62.4323 26.5214 62.8016 26.3462 63.2751C26.171 63.7486 26.0835 64.2954 26.0835 64.9157C26.0835 65.5454 26.171 66.0899 26.3462 66.5492C26.5262 67.0038 26.7842 67.3565 27.1204 67.6075C27.4613 67.8537 27.8803 67.9768 28.3775 67.9768ZM37.055 70.4058V59.4967H40.0806V70.4058H37.055ZM38.5749 58.0904C38.1251 58.0904 37.7392 57.9413 37.4173 57.643C37.1 57.3399 36.9414 56.9777 36.9414 56.5563C36.9414 56.1397 37.1 55.7822 37.4173 55.4839C37.7392 55.1809 38.1251 55.0293 38.5749 55.0293C39.0247 55.0293 39.4083 55.1809 39.7255 55.4839C40.0475 55.7822 40.2085 56.1397 40.2085 56.5563C40.2085 56.9777 40.0475 57.3399 39.7255 57.643C39.4083 57.9413 39.0247 58.0904 38.5749 58.0904ZM43.5611 70.4058V55.8603H46.6364V67.8703H52.8722V70.4058H43.5611ZM55.8519 70.4058V59.4967H58.8775V70.4058H55.8519ZM57.3718 58.0904C56.922 58.0904 56.5361 57.9413 56.2141 57.643C55.8969 57.3399 55.7383 56.9777 55.7383 56.5563C55.7383 56.1397 55.8969 55.7822 56.2141 55.4839C56.5361 55.1809 56.922 55.0293 57.3718 55.0293C57.8216 55.0293 58.2051 55.1809 58.5224 55.4839C58.8443 55.7822 59.0053 56.1397 59.0053 56.5563C59.0053 56.9777 58.8443 57.3399 58.5224 57.643C58.2051 57.9413 57.8216 58.0904 57.3718 58.0904ZM62.358 70.4058V55.8603H65.3835V61.3291H65.4759C65.6084 61.0355 65.8002 60.7372 66.0511 60.4342C66.3068 60.1264 66.6383 59.8707 67.0455 59.6671C67.4574 59.4588 67.9688 59.3546 68.5795 59.3546C69.375 59.3546 70.1089 59.563 70.7812 59.9796C71.4536 60.3916 71.991 61.0142 72.3935 61.8475C72.7959 62.6761 72.9972 63.7154 72.9972 64.9654C72.9972 66.1823 72.8007 67.2097 72.4077 68.0478C72.0194 68.8811 71.4891 69.5132 70.8168 69.9441C70.1491 70.3703 69.401 70.5833 68.5724 70.5833C67.9853 70.5833 67.4858 70.4863 67.0739 70.2921C66.6667 70.098 66.3329 69.8542 66.0724 69.5606C65.812 69.2623 65.6132 68.9616 65.4759 68.6586H65.3409V70.4058H62.358ZM65.3196 64.9512C65.3196 65.5999 65.4096 66.1657 65.5895 66.6487C65.7694 67.1316 66.0298 67.508 66.3707 67.7779C66.7116 68.0431 67.1259 68.1756 67.6136 68.1756C68.1061 68.1756 68.5227 68.0407 68.8636 67.7708C69.2045 67.4962 69.4626 67.1174 69.6378 66.6345C69.8177 66.1468 69.9077 65.5857 69.9077 64.9512C69.9077 64.3215 69.8201 63.7675 69.6449 63.2893C69.4697 62.8111 69.2116 62.437 68.8707 62.1671C68.5298 61.8972 68.1108 61.7623 67.6136 61.7623C67.1212 61.7623 66.7045 61.8925 66.3636 62.1529C66.0275 62.4133 65.7694 62.7827 65.5895 63.2609C65.4096 63.7391 65.3196 64.3025 65.3196 64.9512Z" fill="white"/>
</svg>
